<svg xmlns="http://www.w3.org/2000/svg" version="1.1" xmlns:xlink="http://www.w3.org/1999/xlink" xmlns:svgjs="http://svgjs.dev/svgjs" viewBox="0 0 1422 800"><g fill="none" stroke-width="3" stroke="hsl(189, 86%, 22%)" stroke-linecap="round"><line x1="893.5" y1="400" x2="528.5" y2="400" transform="rotate(0, 711, 400)" opacity="0.32"></line><line x1="1309" y1="400" x2="113" y2="400" transform="rotate(4, 711, 400)" opacity="0.57"></line><line x1="831.5" y1="400" x2="590.5" y2="400" transform="rotate(8, 711, 400)" opacity="0.98"></line><line x1="866.5" y1="400" x2="555.5" y2="400" transform="rotate(12, 711, 400)" opacity="0.13"></line><line x1="886" y1="400" x2="536" y2="400" transform="rotate(16, 711, 400)" opacity="0.85"></line><line x1="1350" y1="400" x2="72" y2="400" transform="rotate(20, 711, 400)" opacity="0.72"></line><line x1="1334" y1="400" x2="88" y2="400" transform="rotate(24, 711, 400)" opacity="0.49"></line><line x1="1313" y1="400" x2="109" y2="400" transform="rotate(28, 711, 400)" opacity="0.47"></line><line x1="1144.5" y1="400" x2="277.5" y2="400" transform="rotate(32, 711, 400)" opacity="0.14"></line><line x1="783.5" y1="400" x2="638.5" y2="400" transform="rotate(36, 711, 400)" opacity="0.40"></line><line x1="1161.5" y1="400" x2="260.5" y2="400" transform="rotate(40, 711, 400)" opacity="0.42"></line><line x1="1108.5" y1="400" x2="313.5" y2="400" transform="rotate(44, 711, 400)" opacity="0.69"></line><line x1="1269" y1="400" x2="153" y2="400" transform="rotate(48, 711, 400)" opacity="0.29"></line><line x1="1231.5" y1="400" x2="190.5" y2="400" transform="rotate(52, 711, 400)" opacity="0.10"></line><line x1="959.5" y1="400" x2="462.5" y2="400" transform="rotate(56, 711, 400)" opacity="0.50"></line><line x1="854.5" y1="400" x2="567.5" y2="400" transform="rotate(60, 711, 400)" opacity="0.59"></line><line x1="1289" y1="400" x2="133" y2="400" transform="rotate(64, 711, 400)" opacity="0.30"></line><line x1="931" y1="400" x2="491" y2="400" transform="rotate(68, 711, 400)" opacity="0.12"></line><line x1="1239.5" y1="400" x2="182.5" y2="400" transform="rotate(72, 711, 400)" opacity="0.34"></line><line x1="1114" y1="400" x2="308" y2="400" transform="rotate(76, 711, 400)" opacity="0.24"></line><line x1="846.5" y1="400" x2="575.5" y2="400" transform="rotate(80, 711, 400)" opacity="0.17"></line><line x1="850.5" y1="400" x2="571.5" y2="400" transform="rotate(84, 711, 400)" opacity="0.21"></line><line x1="982.5" y1="400" x2="439.5" y2="400" transform="rotate(88, 711, 400)" opacity="0.10"></line><line x1="1265" y1="400" x2="157" y2="400" transform="rotate(92, 711, 400)" opacity="0.92"></line><line x1="1028.5" y1="400" x2="393.5" y2="400" transform="rotate(96, 711, 400)" opacity="0.54"></line><line x1="840.5" y1="400" x2="581.5" y2="400" transform="rotate(100, 711, 400)" opacity="0.99"></line><line x1="1015" y1="400" x2="407" y2="400" transform="rotate(104, 711, 400)" opacity="0.84"></line><line x1="1127" y1="400" x2="295" y2="400" transform="rotate(108, 711, 400)" opacity="0.38"></line><line x1="1063" y1="400" x2="359" y2="400" transform="rotate(112, 711, 400)" opacity="0.60"></line><line x1="876.5" y1="400" x2="545.5" y2="400" transform="rotate(116, 711, 400)" opacity="0.55"></line><line x1="1258.5" y1="400" x2="163.5" y2="400" transform="rotate(120, 711, 400)" opacity="0.54"></line><line x1="1019" y1="400" x2="403" y2="400" transform="rotate(124, 711, 400)" opacity="0.60"></line><line x1="884" y1="400" x2="538" y2="400" transform="rotate(128, 711, 400)" opacity="0.20"></line><line x1="1096" y1="400" x2="326" y2="400" transform="rotate(132, 711, 400)" opacity="0.39"></line><line x1="1248" y1="400" x2="174" y2="400" transform="rotate(136, 711, 400)" opacity="0.89"></line><line x1="880" y1="400" x2="542" y2="400" transform="rotate(140, 711, 400)" opacity="0.38"></line><line x1="677.5" y1="400" x2="744.5" y2="400" transform="rotate(144, 711, 400)" opacity="0.47"></line><line x1="1057.5" y1="400" x2="364.5" y2="400" transform="rotate(148, 711, 400)" opacity="0.32"></line><line x1="702.5" y1="400" x2="719.5" y2="400" transform="rotate(152, 711, 400)" opacity="0.41"></line><line x1="1071" y1="400" x2="351" y2="400" transform="rotate(156, 711, 400)" opacity="0.90"></line><line x1="935" y1="400" x2="487" y2="400" transform="rotate(160, 711, 400)" opacity="0.94"></line><line x1="1203" y1="400" x2="219" y2="400" transform="rotate(164, 711, 400)" opacity="0.10"></line><line x1="1099.5" y1="400" x2="322.5" y2="400" transform="rotate(168, 711, 400)" opacity="0.45"></line><line x1="1323" y1="400" x2="99" y2="400" transform="rotate(172, 711, 400)" opacity="0.50"></line><line x1="922.5" y1="400" x2="499.5" y2="400" transform="rotate(176, 711, 400)" opacity="0.47"></line><line x1="1079.5" y1="400" x2="342.5" y2="400" transform="rotate(180, 711, 400)" opacity="0.99"></line><line x1="1010.5" y1="400" x2="411.5" y2="400" transform="rotate(184, 711, 400)" opacity="0.60"></line><line x1="887" y1="400" x2="535" y2="400" transform="rotate(188, 711, 400)" opacity="0.41"></line><line x1="1207" y1="400" x2="215" y2="400" transform="rotate(192, 711, 400)" opacity="0.86"></line><line x1="1244" y1="400" x2="178" y2="400" transform="rotate(196, 711, 400)" opacity="0.78"></line><line x1="1034" y1="400" x2="388" y2="400" transform="rotate(200, 711, 400)" opacity="0.12"></line><line x1="810.5" y1="400" x2="611.5" y2="400" transform="rotate(204, 711, 400)" opacity="0.29"></line><line x1="1095" y1="400" x2="327" y2="400" transform="rotate(208, 711, 400)" opacity="0.67"></line><line x1="803" y1="400" x2="619" y2="400" transform="rotate(212, 711, 400)" opacity="0.44"></line><line x1="1075" y1="400" x2="347" y2="400" transform="rotate(216, 711, 400)" opacity="0.29"></line><line x1="1359" y1="400" x2="63" y2="400" transform="rotate(220, 711, 400)" opacity="0.90"></line><line x1="1234.5" y1="400" x2="187.5" y2="400" transform="rotate(224, 711, 400)" opacity="0.25"></line><line x1="1073" y1="400" x2="349" y2="400" transform="rotate(228, 711, 400)" opacity="0.54"></line><line x1="705" y1="400" x2="717" y2="400" transform="rotate(232, 711, 400)" opacity="0.69"></line><line x1="1039.5" y1="400" x2="382.5" y2="400" transform="rotate(236, 711, 400)" opacity="0.37"></line><line x1="690.5" y1="400" x2="731.5" y2="400" transform="rotate(240, 711, 400)" opacity="0.25"></line><line x1="1103" y1="400" x2="319" y2="400" transform="rotate(244, 711, 400)" opacity="0.53"></line><line x1="795.5" y1="400" x2="626.5" y2="400" transform="rotate(248, 711, 400)" opacity="0.38"></line><line x1="1234" y1="400" x2="188" y2="400" transform="rotate(252, 711, 400)" opacity="0.27"></line><line x1="1046.5" y1="400" x2="375.5" y2="400" transform="rotate(256, 711, 400)" opacity="0.32"></line><line x1="1361.5" y1="400" x2="60.5" y2="400" transform="rotate(260, 711, 400)" opacity="0.76"></line><line x1="1280.5" y1="400" x2="141.5" y2="400" transform="rotate(264, 711, 400)" opacity="0.35"></line><line x1="834" y1="400" x2="588" y2="400" transform="rotate(268, 711, 400)" opacity="0.61"></line><line x1="682.5" y1="400" x2="739.5" y2="400" transform="rotate(272, 711, 400)" opacity="0.30"></line><line x1="1019.5" y1="400" x2="402.5" y2="400" transform="rotate(276, 711, 400)" opacity="0.33"></line><line x1="1140.5" y1="400" x2="281.5" y2="400" transform="rotate(280, 711, 400)" opacity="0.29"></line><line x1="1120" y1="400" x2="302" y2="400" transform="rotate(284, 711, 400)" opacity="0.20"></line><line x1="982.5" y1="400" x2="439.5" y2="400" transform="rotate(288, 711, 400)" opacity="0.77"></line><line x1="715.5" y1="400" x2="706.5" y2="400" transform="rotate(292, 711, 400)" opacity="0.86"></line><line x1="1278.5" y1="400" x2="143.5" y2="400" transform="rotate(296, 711, 400)" opacity="0.71"></line><line x1="939.5" y1="400" x2="482.5" y2="400" transform="rotate(300, 711, 400)" opacity="0.96"></line><line x1="1282.5" y1="400" x2="139.5" y2="400" transform="rotate(304, 711, 400)" opacity="0.69"></line><line x1="1199" y1="400" x2="223" y2="400" transform="rotate(308, 711, 400)" opacity="0.53"></line><line x1="678" y1="400" x2="744" y2="400" transform="rotate(312, 711, 400)" opacity="0.09"></line><line x1="962.5" y1="400" x2="459.5" y2="400" transform="rotate(316, 711, 400)" opacity="0.32"></line><line x1="1164.5" y1="400" x2="257.5" y2="400" transform="rotate(320, 711, 400)" opacity="0.38"></line><line x1="933.5" y1="400" x2="488.5" y2="400" transform="rotate(324, 711, 400)" opacity="0.65"></line><line x1="1127" y1="400" x2="295" y2="400" transform="rotate(328, 711, 400)" opacity="0.26"></line><line x1="929.5" y1="400" x2="492.5" y2="400" transform="rotate(332, 711, 400)" opacity="0.26"></line><line x1="1306" y1="400" x2="116" y2="400" transform="rotate(336, 711, 400)" opacity="0.11"></line><line x1="1130.5" y1="400" x2="291.5" y2="400" transform="rotate(340, 711, 400)" opacity="0.62"></line><line x1="1245" y1="400" x2="177" y2="400" transform="rotate(344, 711, 400)" opacity="0.09"></line><line x1="751" y1="400" x2="671" y2="400" transform="rotate(348, 711, 400)" opacity="0.31"></line></g></svg>