<svg id="visual" viewBox="0 0 900 900" width="900" height="900" xmlns="http://www.w3.org/2000/svg" xmlns:xlink="http://www.w3.org/1999/xlink" version="1.1"><rect x="0" y="0" width="900" height="900" fill="#000"></rect><path d="M0 278L21.5 277.7C43 277.3 86 276.7 128.8 279.2C171.7 281.7 214.3 287.3 257.2 317C300 346.7 343 400.3 385.8 423.2C428.7 446 471.3 438 514.2 422C557 406 600 382 642.8 390C685.7 398 728.3 438 771.2 434C814 430 857 382 878.5 358L900 334L900 901L878.5 901C857 901 814 901 771.2 901C728.3 901 685.7 901 642.8 901C600 901 557 901 514.2 901C471.3 901 428.7 901 385.8 901C343 901 300 901 257.2 901C214.3 901 171.7 901 128.8 901C86 901 43 901 21.5 901L0 901Z" fill="#011013"></path><path d="M0 490L21.5 486.7C43 483.3 86 476.7 128.8 456.7C171.7 436.7 214.3 403.3 257.2 413.7C300 424 343 478 385.8 477.8C428.7 477.7 471.3 423.3 514.2 395.3C557 367.3 600 365.7 642.8 374.3C685.7 383 728.3 402 771.2 421.2C814 440.3 857 459.7 878.5 469.3L900 479L900 901L878.5 901C857 901 814 901 771.2 901C728.3 901 685.7 901 642.8 901C600 901 557 901 514.2 901C471.3 901 428.7 901 385.8 901C343 901 300 901 257.2 901C214.3 901 171.7 901 128.8 901C86 901 43 901 21.5 901L0 901Z" fill="#0c2227"></path><path d="M0 598L21.5 586.5C43 575 86 552 128.8 552.7C171.7 553.3 214.3 577.7 257.2 571.3C300 565 343 528 385.8 518.5C428.7 509 471.3 527 514.2 549.8C557 572.7 600 600.3 642.8 613.5C685.7 626.7 728.3 625.3 771.2 602.2C814 579 857 534 878.5 511.5L900 489L900 901L878.5 901C857 901 814 901 771.2 901C728.3 901 685.7 901 642.8 901C600 901 557 901 514.2 901C471.3 901 428.7 901 385.8 901C343 901 300 901 257.2 901C214.3 901 171.7 901 128.8 901C86 901 43 901 21.5 901L0 901Z" fill="#0e343c"></path><path d="M0 638L21.5 638.2C43 638.3 86 638.7 128.8 629.7C171.7 620.7 214.3 602.3 257.2 615C300 627.7 343 671.3 385.8 692.5C428.7 713.7 471.3 712.3 514.2 699.5C557 686.7 600 662.3 642.8 642.2C685.7 622 728.3 606 771.2 597.7C814 589.3 857 588.7 878.5 588.3L900 588L900 901L878.5 901C857 901 814 901 771.2 901C728.3 901 685.7 901 642.8 901C600 901 557 901 514.2 901C471.3 901 428.7 901 385.8 901C343 901 300 901 257.2 901C214.3 901 171.7 901 128.8 901C86 901 43 901 21.5 901L0 901Z" fill="#0d4752"></path><path d="M0 731L21.5 728.8C43 726.7 86 722.3 128.8 725.3C171.7 728.3 214.3 738.7 257.2 740.7C300 742.7 343 736.3 385.8 742.2C428.7 748 471.3 766 514.2 777.8C557 789.7 600 795.3 642.8 788.2C685.7 781 728.3 761 771.2 765.5C814 770 857 799 878.5 813.5L900 828L900 901L878.5 901C857 901 814 901 771.2 901C728.3 901 685.7 901 642.8 901C600 901 557 901 514.2 901C471.3 901 428.7 901 385.8 901C343 901 300 901 257.2 901C214.3 901 171.7 901 128.8 901C86 901 43 901 21.5 901L0 901Z" fill="#085b69"></path></svg>