<svg id="visual" viewBox="0 0 1920 1080" width="1920" height="1080" xmlns="http://www.w3.org/2000/svg" xmlns:xlink="http://www.w3.org/1999/xlink" version="1.1"><rect x="0" y="0" width="1920" height="1080" fill="#000"></rect><path d="M0 734L45.7 741C91.3 748 182.7 762 274.2 755.5C365.7 749 457.3 722 548.8 706.8C640.3 691.7 731.7 688.3 823 703.2C914.3 718 1005.7 751 1097 756.5C1188.3 762 1279.7 740 1371.2 714.5C1462.7 689 1554.3 660 1645.8 648.7C1737.3 637.3 1828.7 643.7 1874.3 646.8L1920 650L1920 1081L1874.3 1081C1828.7 1081 1737.3 1081 1645.8 1081C1554.3 1081 1462.7 1081 1371.2 1081C1279.7 1081 1188.3 1081 1097 1081C1005.7 1081 914.3 1081 823 1081C731.7 1081 640.3 1081 548.8 1081C457.3 1081 365.7 1081 274.2 1081C182.7 1081 91.3 1081 45.7 1081L0 1081Z" fill="#011013"></path><path d="M0 821L45.7 812.2C91.3 803.3 182.7 785.7 274.2 784.2C365.7 782.7 457.3 797.3 548.8 809.7C640.3 822 731.7 832 823 836.2C914.3 840.3 1005.7 838.7 1097 822C1188.3 805.3 1279.7 773.7 1371.2 759.5C1462.7 745.3 1554.3 748.7 1645.8 767.8C1737.3 787 1828.7 822 1874.3 839.5L1920 857L1920 1081L1874.3 1081C1828.7 1081 1737.3 1081 1645.8 1081C1554.3 1081 1462.7 1081 1371.2 1081C1279.7 1081 1188.3 1081 1097 1081C1005.7 1081 914.3 1081 823 1081C731.7 1081 640.3 1081 548.8 1081C457.3 1081 365.7 1081 274.2 1081C182.7 1081 91.3 1081 45.7 1081L0 1081Z" fill="#0c2227"></path><path d="M0 884L45.7 872.2C91.3 860.3 182.7 836.7 274.2 839.3C365.7 842 457.3 871 548.8 886.5C640.3 902 731.7 904 823 886.8C914.3 869.7 1005.7 833.3 1097 823.5C1188.3 813.7 1279.7 830.3 1371.2 831.7C1462.7 833 1554.3 819 1645.8 817.3C1737.3 815.7 1828.7 826.3 1874.3 831.7L1920 837L1920 1081L1874.3 1081C1828.7 1081 1737.3 1081 1645.8 1081C1554.3 1081 1462.7 1081 1371.2 1081C1279.7 1081 1188.3 1081 1097 1081C1005.7 1081 914.3 1081 823 1081C731.7 1081 640.3 1081 548.8 1081C457.3 1081 365.7 1081 274.2 1081C182.7 1081 91.3 1081 45.7 1081L0 1081Z" fill="#0e343c"></path><path d="M0 865L45.7 875.3C91.3 885.7 182.7 906.3 274.2 912.7C365.7 919 457.3 911 548.8 913.7C640.3 916.3 731.7 929.7 823 937.3C914.3 945 1005.7 947 1097 949.2C1188.3 951.3 1279.7 953.7 1371.2 954.8C1462.7 956 1554.3 956 1645.8 941.3C1737.3 926.7 1828.7 897.3 1874.3 882.7L1920 868L1920 1081L1874.3 1081C1828.7 1081 1737.3 1081 1645.8 1081C1554.3 1081 1462.7 1081 1371.2 1081C1279.7 1081 1188.3 1081 1097 1081C1005.7 1081 914.3 1081 823 1081C731.7 1081 640.3 1081 548.8 1081C457.3 1081 365.7 1081 274.2 1081C182.7 1081 91.3 1081 45.7 1081L0 1081Z" fill="#0d4752"></path><path d="M0 992L45.7 992.2C91.3 992.3 182.7 992.7 274.2 993C365.7 993.3 457.3 993.7 548.8 996.3C640.3 999 731.7 1004 823 1007C914.3 1010 1005.7 1011 1097 1001.8C1188.3 992.7 1279.7 973.3 1371.2 963.2C1462.7 953 1554.3 952 1645.8 955.7C1737.3 959.3 1828.7 967.7 1874.3 971.8L1920 976L1920 1081L1874.3 1081C1828.7 1081 1737.3 1081 1645.8 1081C1554.3 1081 1462.7 1081 1371.2 1081C1279.7 1081 1188.3 1081 1097 1081C1005.7 1081 914.3 1081 823 1081C731.7 1081 640.3 1081 548.8 1081C457.3 1081 365.7 1081 274.2 1081C182.7 1081 91.3 1081 45.7 1081L0 1081Z" fill="#085b69"></path></svg>